<svg width="38" height="10" viewBox="0 0 38 10" fill="none" xmlns="http://www.w3.org/2000/svg">
<path d="M5.77539 6.84375C5.77539 6.64453 5.74414 6.46875 5.68164 6.31641C5.62305 6.16016 5.51758 6.01953 5.36523 5.89453C5.2168 5.76953 5.00977 5.65039 4.74414 5.53711C4.48242 5.42383 4.15039 5.30859 3.74805 5.19141C3.32617 5.06641 2.94531 4.92773 2.60547 4.77539C2.26562 4.61914 1.97461 4.44141 1.73242 4.24219C1.49023 4.04297 1.30469 3.81445 1.17578 3.55664C1.04688 3.29883 0.982422 3.00391 0.982422 2.67188C0.982422 2.33984 1.05078 2.0332 1.1875 1.75195C1.32422 1.4707 1.51953 1.22656 1.77344 1.01953C2.03125 0.808594 2.33789 0.644531 2.69336 0.527344C3.04883 0.410156 3.44531 0.351562 3.88281 0.351562C4.52344 0.351562 5.06641 0.474609 5.51172 0.720703C5.96094 0.962891 6.30273 1.28125 6.53711 1.67578C6.77148 2.06641 6.88867 2.48438 6.88867 2.92969H5.76367C5.76367 2.60938 5.69531 2.32617 5.55859 2.08008C5.42188 1.83008 5.21484 1.63477 4.9375 1.49414C4.66016 1.34961 4.30859 1.27734 3.88281 1.27734C3.48047 1.27734 3.14844 1.33789 2.88672 1.45898C2.625 1.58008 2.42969 1.74414 2.30078 1.95117C2.17578 2.1582 2.11328 2.39453 2.11328 2.66016C2.11328 2.83984 2.15039 3.00391 2.22461 3.15234C2.30273 3.29688 2.42188 3.43164 2.58203 3.55664C2.74609 3.68164 2.95312 3.79688 3.20312 3.90234C3.45703 4.00781 3.75977 4.10938 4.11133 4.20703C4.5957 4.34375 5.01367 4.49609 5.36523 4.66406C5.7168 4.83203 6.00586 5.02148 6.23242 5.23242C6.46289 5.43945 6.63281 5.67578 6.74219 5.94141C6.85547 6.20312 6.91211 6.5 6.91211 6.83203C6.91211 7.17969 6.8418 7.49414 6.70117 7.77539C6.56055 8.05664 6.35938 8.29688 6.09766 8.49609C5.83594 8.69531 5.52148 8.84961 5.1543 8.95898C4.79102 9.06445 4.38477 9.11719 3.93555 9.11719C3.54102 9.11719 3.15234 9.0625 2.76953 8.95312C2.39062 8.84375 2.04492 8.67969 1.73242 8.46094C1.42383 8.24219 1.17578 7.97266 0.988281 7.65234C0.804688 7.32812 0.712891 6.95312 0.712891 6.52734H1.83789C1.83789 6.82031 1.89453 7.07227 2.00781 7.2832C2.12109 7.49023 2.27539 7.66211 2.4707 7.79883C2.66992 7.93555 2.89453 8.03711 3.14453 8.10352C3.39844 8.16602 3.66211 8.19727 3.93555 8.19727C4.33008 8.19727 4.66406 8.14258 4.9375 8.0332C5.21094 7.92383 5.41797 7.76758 5.55859 7.56445C5.70312 7.36133 5.77539 7.12109 5.77539 6.84375ZM15.9258 4.13672V5.05664H11.3086V4.13672H15.9258ZM11.4844 0.46875V9H10.3535V0.46875H11.4844ZM16.9102 0.46875V9H15.7852V0.46875H16.9102ZM27.4883 4.46484V5.00391C27.4883 5.64453 27.4082 6.21875 27.248 6.72656C27.0879 7.23438 26.8574 7.66602 26.5566 8.02148C26.2559 8.37695 25.8945 8.64844 25.4727 8.83594C25.0547 9.02344 24.5859 9.11719 24.0664 9.11719C23.5625 9.11719 23.0996 9.02344 22.6777 8.83594C22.2598 8.64844 21.8965 8.37695 21.5879 8.02148C21.2832 7.66602 21.0469 7.23438 20.8789 6.72656C20.7109 6.21875 20.627 5.64453 20.627 5.00391V4.46484C20.627 3.82422 20.709 3.25195 20.873 2.74805C21.041 2.24023 21.2773 1.80859 21.582 1.45312C21.8867 1.09375 22.248 0.820312 22.666 0.632812C23.0879 0.445312 23.5508 0.351562 24.0547 0.351562C24.5742 0.351562 25.043 0.445312 25.4609 0.632812C25.8828 0.820312 26.2441 1.09375 26.5449 1.45312C26.8496 1.80859 27.082 2.24023 27.2422 2.74805C27.4062 3.25195 27.4883 3.82422 27.4883 4.46484ZM26.3691 5.00391V4.45312C26.3691 3.94531 26.3164 3.49609 26.2109 3.10547C26.1094 2.71484 25.959 2.38672 25.7598 2.12109C25.5605 1.85547 25.3164 1.6543 25.0273 1.51758C24.7422 1.38086 24.418 1.3125 24.0547 1.3125C23.7031 1.3125 23.3848 1.38086 23.0996 1.51758C22.8184 1.6543 22.5762 1.85547 22.373 2.12109C22.1738 2.38672 22.0195 2.71484 21.9102 3.10547C21.8008 3.49609 21.7461 3.94531 21.7461 4.45312V5.00391C21.7461 5.51562 21.8008 5.96875 21.9102 6.36328C22.0195 6.75391 22.1758 7.08398 22.3789 7.35352C22.5859 7.61914 22.8301 7.82031 23.1113 7.95703C23.3965 8.09375 23.7148 8.16211 24.0664 8.16211C24.4336 8.16211 24.7598 8.09375 25.0449 7.95703C25.3301 7.82031 25.5703 7.61914 25.7656 7.35352C25.9648 7.08398 26.1152 6.75391 26.2168 6.36328C26.3184 5.96875 26.3691 5.51562 26.3691 5.00391ZM34.3281 5.6543H32.0488V4.73438H34.3281C34.7695 4.73438 35.127 4.66406 35.4004 4.52344C35.6738 4.38281 35.873 4.1875 35.998 3.9375C36.127 3.6875 36.1914 3.40234 36.1914 3.08203C36.1914 2.78906 36.127 2.51367 35.998 2.25586C35.873 1.99805 35.6738 1.79102 35.4004 1.63477C35.127 1.47461 34.7695 1.39453 34.3281 1.39453H32.3125V9H31.1816V0.46875H34.3281C34.9727 0.46875 35.5176 0.580078 35.9629 0.802734C36.4082 1.02539 36.7461 1.33398 36.9766 1.72852C37.207 2.11914 37.3223 2.56641 37.3223 3.07031C37.3223 3.61719 37.207 4.08398 36.9766 4.4707C36.7461 4.85742 36.4082 5.15234 35.9629 5.35547C35.5176 5.55469 34.9727 5.6543 34.3281 5.6543Z" fill="black"/>
</svg>
