<svg width="74" height="10" viewBox="0 0 74 10" fill="none" xmlns="http://www.w3.org/2000/svg">
<path d="M3.2793 5.6543H1V4.73438H3.2793C3.7207 4.73438 4.07812 4.66406 4.35156 4.52344C4.625 4.38281 4.82422 4.1875 4.94922 3.9375C5.07812 3.6875 5.14258 3.40234 5.14258 3.08203C5.14258 2.78906 5.07812 2.51367 4.94922 2.25586C4.82422 1.99805 4.625 1.79102 4.35156 1.63477C4.07812 1.47461 3.7207 1.39453 3.2793 1.39453H1.26367V9H0.132812V0.46875H3.2793C3.92383 0.46875 4.46875 0.580078 4.91406 0.802734C5.35938 1.02539 5.69727 1.33398 5.92773 1.72852C6.1582 2.11914 6.27344 2.56641 6.27344 3.07031C6.27344 3.61719 6.1582 4.08398 5.92773 4.4707C5.69727 4.85742 5.35938 5.15234 4.91406 5.35547C4.46875 5.55469 3.92383 5.6543 3.2793 5.6543ZM9.70312 0.46875H12.5273C13.168 0.46875 13.709 0.566406 14.1504 0.761719C14.5957 0.957031 14.9336 1.24609 15.1641 1.62891C15.3984 2.00781 15.5156 2.47461 15.5156 3.0293C15.5156 3.41992 15.4355 3.77734 15.2754 4.10156C15.1191 4.42188 14.8926 4.69531 14.5957 4.92188C14.3027 5.14453 13.9512 5.31055 13.541 5.41992L13.2246 5.54297H10.5703L10.5586 4.62305H12.5625C12.9688 4.62305 13.3066 4.55273 13.5762 4.41211C13.8457 4.26758 14.0488 4.07422 14.1855 3.83203C14.3223 3.58984 14.3906 3.32227 14.3906 3.0293C14.3906 2.70117 14.3262 2.41406 14.1973 2.16797C14.0684 1.92188 13.8652 1.73242 13.5879 1.59961C13.3145 1.46289 12.9609 1.39453 12.5273 1.39453H10.834V9H9.70312V0.46875ZM14.6895 9L12.6152 5.13281L13.793 5.12695L15.8965 8.92969V9H14.6895ZM25.666 4.46484V5.00391C25.666 5.64453 25.5859 6.21875 25.4258 6.72656C25.2656 7.23438 25.0352 7.66602 24.7344 8.02148C24.4336 8.37695 24.0723 8.64844 23.6504 8.83594C23.2324 9.02344 22.7637 9.11719 22.2441 9.11719C21.7402 9.11719 21.2773 9.02344 20.8555 8.83594C20.4375 8.64844 20.0742 8.37695 19.7656 8.02148C19.4609 7.66602 19.2246 7.23438 19.0566 6.72656C18.8887 6.21875 18.8047 5.64453 18.8047 5.00391V4.46484C18.8047 3.82422 18.8867 3.25195 19.0508 2.74805C19.2188 2.24023 19.4551 1.80859 19.7598 1.45312C20.0645 1.09375 20.4258 0.820312 20.8438 0.632812C21.2656 0.445312 21.7285 0.351562 22.2324 0.351562C22.752 0.351562 23.2207 0.445312 23.6387 0.632812C24.0605 0.820312 24.4219 1.09375 24.7227 1.45312C25.0273 1.80859 25.2598 2.24023 25.4199 2.74805C25.584 3.25195 25.666 3.82422 25.666 4.46484ZM24.5469 5.00391V4.45312C24.5469 3.94531 24.4941 3.49609 24.3887 3.10547C24.2871 2.71484 24.1367 2.38672 23.9375 2.12109C23.7383 1.85547 23.4941 1.6543 23.2051 1.51758C22.9199 1.38086 22.5957 1.3125 22.2324 1.3125C21.8809 1.3125 21.5625 1.38086 21.2773 1.51758C20.9961 1.6543 20.7539 1.85547 20.5508 2.12109C20.3516 2.38672 20.1973 2.71484 20.0879 3.10547C19.9785 3.49609 19.9238 3.94531 19.9238 4.45312V5.00391C19.9238 5.51562 19.9785 5.96875 20.0879 6.36328C20.1973 6.75391 20.3535 7.08398 20.5566 7.35352C20.7637 7.61914 21.0078 7.82031 21.2891 7.95703C21.5742 8.09375 21.8926 8.16211 22.2441 8.16211C22.6113 8.16211 22.9375 8.09375 23.2227 7.95703C23.5078 7.82031 23.748 7.61914 23.9434 7.35352C24.1426 7.08398 24.293 6.75391 24.3945 6.36328C24.4961 5.96875 24.5469 5.51562 24.5469 5.00391ZM31.668 9H29.8867L29.8984 8.08008H31.668C32.2773 8.08008 32.7852 7.95312 33.1914 7.69922C33.5977 7.44141 33.9023 7.08203 34.1055 6.62109C34.3125 6.15625 34.416 5.61328 34.416 4.99219V4.4707C34.416 3.98242 34.3574 3.54883 34.2402 3.16992C34.123 2.78711 33.9512 2.46484 33.7246 2.20312C33.498 1.9375 33.2207 1.73633 32.8926 1.59961C32.5684 1.46289 32.1953 1.39453 31.7734 1.39453H29.8516V0.46875H31.7734C32.332 0.46875 32.8418 0.5625 33.3027 0.75C33.7637 0.933594 34.1602 1.20117 34.4922 1.55273C34.8281 1.90039 35.0859 2.32227 35.2656 2.81836C35.4453 3.31055 35.5352 3.86523 35.5352 4.48242V4.99219C35.5352 5.60938 35.4453 6.16602 35.2656 6.66211C35.0859 7.1543 34.8262 7.57422 34.4863 7.92188C34.1504 8.26953 33.7441 8.53711 33.2676 8.72461C32.7949 8.9082 32.2617 9 31.668 9ZM30.4902 0.46875V9H29.3594V0.46875H30.4902ZM44.1152 0.46875H45.2402V6.24023C45.2402 6.88086 45.0977 7.41406 44.8125 7.83984C44.5273 8.26562 44.1484 8.58594 43.6758 8.80078C43.207 9.01172 42.6973 9.11719 42.1465 9.11719C41.5684 9.11719 41.0449 9.01172 40.5762 8.80078C40.1113 8.58594 39.7422 8.26562 39.4688 7.83984C39.1992 7.41406 39.0645 6.88086 39.0645 6.24023V0.46875H40.1836V6.24023C40.1836 6.68555 40.2656 7.05273 40.4297 7.3418C40.5938 7.63086 40.8223 7.8457 41.1152 7.98633C41.4121 8.12695 41.7559 8.19727 42.1465 8.19727C42.541 8.19727 42.8848 8.12695 43.1777 7.98633C43.4746 7.8457 43.7051 7.63086 43.8691 7.3418C44.0332 7.05273 44.1152 6.68555 44.1152 6.24023V0.46875ZM54.166 6.28711H55.291C55.2324 6.82617 55.0781 7.30859 54.8281 7.73438C54.5781 8.16016 54.2246 8.49805 53.7676 8.74805C53.3105 8.99414 52.7402 9.11719 52.0566 9.11719C51.5566 9.11719 51.1016 9.02344 50.6914 8.83594C50.2852 8.64844 49.9355 8.38281 49.6426 8.03906C49.3496 7.69141 49.123 7.27539 48.9629 6.79102C48.8066 6.30273 48.7285 5.75977 48.7285 5.16211V4.3125C48.7285 3.71484 48.8066 3.17383 48.9629 2.68945C49.123 2.20117 49.3516 1.7832 49.6484 1.43555C49.9492 1.08789 50.3105 0.820312 50.7324 0.632812C51.1543 0.445312 51.6289 0.351562 52.1562 0.351562C52.8008 0.351562 53.3457 0.472656 53.791 0.714844C54.2363 0.957031 54.582 1.29297 54.8281 1.72266C55.0781 2.14844 55.2324 2.64258 55.291 3.20508H54.166C54.1113 2.80664 54.0098 2.46484 53.8613 2.17969C53.7129 1.89063 53.502 1.66797 53.2285 1.51172C52.9551 1.35547 52.5977 1.27734 52.1562 1.27734C51.7773 1.27734 51.4434 1.34961 51.1543 1.49414C50.8691 1.63867 50.6289 1.84375 50.4336 2.10938C50.2422 2.375 50.0977 2.69336 50 3.06445C49.9023 3.43555 49.8535 3.84766 49.8535 4.30078V5.16211C49.8535 5.58008 49.8965 5.97266 49.9824 6.33984C50.0723 6.70703 50.207 7.0293 50.3867 7.30664C50.5664 7.58398 50.7949 7.80273 51.0723 7.96289C51.3496 8.11914 51.6777 8.19727 52.0566 8.19727C52.5371 8.19727 52.9199 8.12109 53.2051 7.96875C53.4902 7.81641 53.7051 7.59766 53.8496 7.3125C53.998 7.02734 54.1035 6.68555 54.166 6.28711ZM61.8086 0.46875V9H60.6953V0.46875H61.8086ZM64.5508 0.46875V1.39453H57.959V0.46875H64.5508ZM72.2695 6.84375C72.2695 6.64453 72.2383 6.46875 72.1758 6.31641C72.1172 6.16016 72.0117 6.01953 71.8594 5.89453C71.7109 5.76953 71.5039 5.65039 71.2383 5.53711C70.9766 5.42383 70.6445 5.30859 70.2422 5.19141C69.8203 5.06641 69.4395 4.92773 69.0996 4.77539C68.7598 4.61914 68.4688 4.44141 68.2266 4.24219C67.9844 4.04297 67.7988 3.81445 67.6699 3.55664C67.541 3.29883 67.4766 3.00391 67.4766 2.67188C67.4766 2.33984 67.5449 2.0332 67.6816 1.75195C67.8184 1.4707 68.0137 1.22656 68.2676 1.01953C68.5254 0.808594 68.832 0.644531 69.1875 0.527344C69.543 0.410156 69.9395 0.351562 70.377 0.351562C71.0176 0.351562 71.5605 0.474609 72.0059 0.720703C72.4551 0.962891 72.7969 1.28125 73.0312 1.67578C73.2656 2.06641 73.3828 2.48438 73.3828 2.92969H72.2578C72.2578 2.60938 72.1895 2.32617 72.0527 2.08008C71.916 1.83008 71.709 1.63477 71.4316 1.49414C71.1543 1.34961 70.8027 1.27734 70.377 1.27734C69.9746 1.27734 69.6426 1.33789 69.3809 1.45898C69.1191 1.58008 68.9238 1.74414 68.7949 1.95117C68.6699 2.1582 68.6074 2.39453 68.6074 2.66016C68.6074 2.83984 68.6445 3.00391 68.7188 3.15234C68.7969 3.29688 68.916 3.43164 69.0762 3.55664C69.2402 3.68164 69.4473 3.79688 69.6973 3.90234C69.9512 4.00781 70.2539 4.10938 70.6055 4.20703C71.0898 4.34375 71.5078 4.49609 71.8594 4.66406C72.2109 4.83203 72.5 5.02148 72.7266 5.23242C72.957 5.43945 73.127 5.67578 73.2363 5.94141C73.3496 6.20312 73.4062 6.5 73.4062 6.83203C73.4062 7.17969 73.3359 7.49414 73.1953 7.77539C73.0547 8.05664 72.8535 8.29688 72.5918 8.49609C72.3301 8.69531 72.0156 8.84961 71.6484 8.95898C71.2852 9.06445 70.8789 9.11719 70.4297 9.11719C70.0352 9.11719 69.6465 9.0625 69.2637 8.95312C68.8848 8.84375 68.5391 8.67969 68.2266 8.46094C67.918 8.24219 67.6699 7.97266 67.4824 7.65234C67.2988 7.32812 67.207 6.95312 67.207 6.52734H68.332C68.332 6.82031 68.3887 7.07227 68.502 7.2832C68.6152 7.49023 68.7695 7.66211 68.9648 7.79883C69.1641 7.93555 69.3887 8.03711 69.6387 8.10352C69.8926 8.16602 70.1562 8.19727 70.4297 8.19727C70.8242 8.19727 71.1582 8.14258 71.4316 8.0332C71.7051 7.92383 71.9121 7.76758 72.0527 7.56445C72.1973 7.36133 72.2695 7.12109 72.2695 6.84375Z" fill="black"/>
</svg>
