<svg width="62" height="10" viewBox="0 0 62 10" fill="none" xmlns="http://www.w3.org/2000/svg">
<path d="M5.67383 8.08008V9H1.15625V8.08008H5.67383ZM1.38477 0.46875V9H0.253906V0.46875H1.38477ZM5.07617 4.13672V5.05664H1.15625V4.13672H5.07617ZM5.61523 0.46875V1.39453H1.15625V0.46875H5.61523ZM9.80664 0.46875L11.8574 3.73828L13.9082 0.46875H15.2266L12.5312 4.69336L15.291 9H13.9609L11.8574 5.66602L9.75391 9H8.42383L11.1836 4.69336L8.48828 0.46875H9.80664ZM21.7441 5.6543H19.4648V4.73438H21.7441C22.1855 4.73438 22.543 4.66406 22.8164 4.52344C23.0898 4.38281 23.2891 4.1875 23.4141 3.9375C23.543 3.6875 23.6074 3.40234 23.6074 3.08203C23.6074 2.78906 23.543 2.51367 23.4141 2.25586C23.2891 1.99805 23.0898 1.79102 22.8164 1.63477C22.543 1.47461 22.1855 1.39453 21.7441 1.39453H19.7285V9H18.5977V0.46875H21.7441C22.3887 0.46875 22.9336 0.580078 23.3789 0.802734C23.8242 1.02539 24.1621 1.33398 24.3926 1.72852C24.623 2.11914 24.7383 2.56641 24.7383 3.07031C24.7383 3.61719 24.623 4.08398 24.3926 4.4707C24.1621 4.85742 23.8242 5.15234 23.3789 5.35547C22.9336 5.55469 22.3887 5.6543 21.7441 5.6543ZM33.3418 8.08008V9H29.0762V8.08008H33.3418ZM29.2988 0.46875V9H28.168V0.46875H29.2988ZM42.8184 4.46484V5.00391C42.8184 5.64453 42.7383 6.21875 42.5781 6.72656C42.418 7.23438 42.1875 7.66602 41.8867 8.02148C41.5859 8.37695 41.2246 8.64844 40.8027 8.83594C40.3848 9.02344 39.916 9.11719 39.3965 9.11719C38.8926 9.11719 38.4297 9.02344 38.0078 8.83594C37.5898 8.64844 37.2266 8.37695 36.918 8.02148C36.6133 7.66602 36.377 7.23438 36.209 6.72656C36.041 6.21875 35.957 5.64453 35.957 5.00391V4.46484C35.957 3.82422 36.0391 3.25195 36.2031 2.74805C36.3711 2.24023 36.6074 1.80859 36.9121 1.45312C37.2168 1.09375 37.5781 0.820312 37.9961 0.632812C38.418 0.445312 38.8809 0.351562 39.3848 0.351562C39.9043 0.351562 40.373 0.445312 40.791 0.632812C41.2129 0.820312 41.5742 1.09375 41.875 1.45312C42.1797 1.80859 42.4121 2.24023 42.5723 2.74805C42.7363 3.25195 42.8184 3.82422 42.8184 4.46484ZM41.6992 5.00391V4.45312C41.6992 3.94531 41.6465 3.49609 41.541 3.10547C41.4395 2.71484 41.2891 2.38672 41.0898 2.12109C40.8906 1.85547 40.6465 1.6543 40.3574 1.51758C40.0723 1.38086 39.748 1.3125 39.3848 1.3125C39.0332 1.3125 38.7148 1.38086 38.4297 1.51758C38.1484 1.6543 37.9062 1.85547 37.7031 2.12109C37.5039 2.38672 37.3496 2.71484 37.2402 3.10547C37.1309 3.49609 37.0762 3.94531 37.0762 4.45312V5.00391C37.0762 5.51562 37.1309 5.96875 37.2402 6.36328C37.3496 6.75391 37.5059 7.08398 37.709 7.35352C37.916 7.61914 38.1602 7.82031 38.4414 7.95703C38.7266 8.09375 39.0449 8.16211 39.3965 8.16211C39.7637 8.16211 40.0898 8.09375 40.375 7.95703C40.6602 7.82031 40.9004 7.61914 41.0957 7.35352C41.2949 7.08398 41.4453 6.75391 41.5469 6.36328C41.6484 5.96875 41.6992 5.51562 41.6992 5.00391ZM46.5117 0.46875H49.3359C49.9766 0.46875 50.5176 0.566406 50.959 0.761719C51.4043 0.957031 51.7422 1.24609 51.9727 1.62891C52.207 2.00781 52.3242 2.47461 52.3242 3.0293C52.3242 3.41992 52.2441 3.77734 52.084 4.10156C51.9277 4.42188 51.7012 4.69531 51.4043 4.92188C51.1113 5.14453 50.7598 5.31055 50.3496 5.41992L50.0332 5.54297H47.3789L47.3672 4.62305H49.3711C49.7773 4.62305 50.1152 4.55273 50.3848 4.41211C50.6543 4.26758 50.8574 4.07422 50.9941 3.83203C51.1309 3.58984 51.1992 3.32227 51.1992 3.0293C51.1992 2.70117 51.1348 2.41406 51.0059 2.16797C50.877 1.92188 50.6738 1.73242 50.3965 1.59961C50.123 1.46289 49.7695 1.39453 49.3359 1.39453H47.6426V9H46.5117V0.46875ZM51.498 9L49.4238 5.13281L50.6016 5.12695L52.7051 8.92969V9H51.498ZM61.3262 8.08008V9H56.8086V8.08008H61.3262ZM57.0371 0.46875V9H55.9062V0.46875H57.0371ZM60.7285 4.13672V5.05664H56.8086V4.13672H60.7285ZM61.2676 0.46875V1.39453H56.8086V0.46875H61.2676Z" fill="black"/>
</svg>
